<mxfile host="app.diagrams.net" agent="Mozilla/5.0 (Windows NT 10.0; Win64; x64; rv:130.0) Gecko/20100101 Firefox/130.0" version="24.7.15">
  <diagram name="Page-1" id="TVbX9KgjACldvgUGH_jM">
    <mxGraphModel dx="1434" dy="754" grid="1" gridSize="10" guides="1" tooltips="1" connect="1" arrows="1" fold="1" page="1" pageScale="1" pageWidth="827" pageHeight="1169" math="0" shadow="0">
      <root>
        <mxCell id="0" />
        <mxCell id="1" parent="0" />
        <mxCell id="oGcL695DofoNEhs4g2Zo-5" value="" style="endArrow=block;startArrow=block;endFill=1;startFill=1;html=1;rounded=0;" parent="1" source="oGcL695DofoNEhs4g2Zo-6" target="z3eBNMHmMiNgrTxSZCe1-1" edge="1">
          <mxGeometry width="160" relative="1" as="geometry">
            <mxPoint x="400" y="130" as="sourcePoint" />
            <mxPoint x="414" y="160" as="targetPoint" />
          </mxGeometry>
        </mxCell>
        <mxCell id="oGcL695DofoNEhs4g2Zo-6" value="Économie et Sciences Sociales" style="swimlane;fontStyle=0;childLayout=stackLayout;horizontal=1;startSize=26;fillColor=#d5e8d4;horizontalStack=0;resizeParent=1;resizeParentMax=0;resizeLast=0;collapsible=1;marginBottom=0;whiteSpace=wrap;html=1;strokeColor=#82b366;" parent="1" vertex="1" collapsed="1">
          <mxGeometry x="290" y="10" width="210" height="30" as="geometry">
            <mxRectangle x="320" y="10" width="200" height="52" as="alternateBounds" />
          </mxGeometry>
        </mxCell>
        <mxCell id="oGcL695DofoNEhs4g2Zo-7" value="+ description: type" style="text;strokeColor=none;fillColor=none;align=left;verticalAlign=top;spacingLeft=4;spacingRight=4;overflow=hidden;rotatable=0;points=[[0,0.5],[1,0.5]];portConstraint=eastwest;whiteSpace=wrap;html=1;" parent="oGcL695DofoNEhs4g2Zo-6" vertex="1">
          <mxGeometry y="26" width="200" height="26" as="geometry" />
        </mxCell>
        <mxCell id="oGcL695DofoNEhs4g2Zo-15" value="Créer rapidement un diaporama avec Impress" style="swimlane;fontStyle=0;childLayout=stackLayout;horizontal=1;startSize=50;fillColor=#dae8fc;horizontalStack=0;resizeParent=1;resizeParentMax=0;resizeLast=0;collapsible=1;marginBottom=0;whiteSpace=wrap;html=1;strokeColor=#6c8ebf;" parent="1" vertex="1" collapsed="1">
          <mxGeometry x="50" y="270" width="310" height="50" as="geometry">
            <mxRectangle x="350" y="670" width="140" height="128" as="alternateBounds" />
          </mxGeometry>
        </mxCell>
        <mxCell id="oGcL695DofoNEhs4g2Zo-16" value="+ niveau : 2" style="text;strokeColor=none;fillColor=none;align=left;verticalAlign=top;spacingLeft=4;spacingRight=4;overflow=hidden;rotatable=0;points=[[0,0.5],[1,0.5]];portConstraint=eastwest;whiteSpace=wrap;html=1;" parent="oGcL695DofoNEhs4g2Zo-15" vertex="1">
          <mxGeometry y="50" width="140" height="26" as="geometry" />
        </mxCell>
        <mxCell id="oGcL695DofoNEhs4g2Zo-17" value="+ objectifs: type" style="text;strokeColor=none;fillColor=none;align=left;verticalAlign=top;spacingLeft=4;spacingRight=4;overflow=hidden;rotatable=0;points=[[0,0.5],[1,0.5]];portConstraint=eastwest;whiteSpace=wrap;html=1;" parent="oGcL695DofoNEhs4g2Zo-15" vertex="1">
          <mxGeometry y="76" width="140" height="26" as="geometry" />
        </mxCell>
        <mxCell id="oGcL695DofoNEhs4g2Zo-18" value="+ durée: 3-4 heures" style="text;strokeColor=none;fillColor=none;align=left;verticalAlign=top;spacingLeft=4;spacingRight=4;overflow=hidden;rotatable=0;points=[[0,0.5],[1,0.5]];portConstraint=eastwest;whiteSpace=wrap;html=1;" parent="oGcL695DofoNEhs4g2Zo-15" vertex="1">
          <mxGeometry y="102" width="140" height="26" as="geometry" />
        </mxCell>
        <mxCell id="M4qhGssCVsZmkV2U08UX-5" value="" style="endArrow=block;startArrow=block;endFill=1;startFill=1;html=1;rounded=0;" parent="1" source="z3eBNMHmMiNgrTxSZCe1-1" target="oGcL695DofoNEhs4g2Zo-15" edge="1">
          <mxGeometry width="160" relative="1" as="geometry">
            <mxPoint x="395" y="155" as="sourcePoint" />
            <mxPoint x="263" y="360" as="targetPoint" />
          </mxGeometry>
        </mxCell>
        <mxCell id="z3eBNMHmMiNgrTxSZCe1-1" value="Démographie" style="swimlane;fontStyle=0;childLayout=stackLayout;horizontal=1;startSize=30;fillColor=#e1d5e7;horizontalStack=0;resizeParent=1;resizeParentMax=0;resizeLast=0;collapsible=1;marginBottom=0;whiteSpace=wrap;html=1;strokeColor=#9673a6;" parent="1" vertex="1" collapsed="1">
          <mxGeometry x="340" y="130" width="110" height="30" as="geometry">
            <mxRectangle x="350" y="120" width="140" height="78" as="alternateBounds" />
          </mxGeometry>
        </mxCell>
        <mxCell id="z3eBNMHmMiNgrTxSZCe1-2" value="+ description: type" style="text;strokeColor=none;fillColor=none;align=left;verticalAlign=top;spacingLeft=4;spacingRight=4;overflow=hidden;rotatable=0;points=[[0,0.5],[1,0.5]];portConstraint=eastwest;whiteSpace=wrap;html=1;" parent="z3eBNMHmMiNgrTxSZCe1-1" vertex="1">
          <mxGeometry y="26" width="140" height="26" as="geometry" />
        </mxCell>
        <mxCell id="z3eBNMHmMiNgrTxSZCe1-3" value="+ contenu: type" style="text;strokeColor=none;fillColor=none;align=left;verticalAlign=top;spacingLeft=4;spacingRight=4;overflow=hidden;rotatable=0;points=[[0,0.5],[1,0.5]];portConstraint=eastwest;whiteSpace=wrap;html=1;" parent="z3eBNMHmMiNgrTxSZCe1-1" vertex="1">
          <mxGeometry y="52" width="140" height="26" as="geometry" />
        </mxCell>
        <mxCell id="M_tgrwhZa5VNIvvHF0bR-17" value="Générer une présentation à partir d&#39;un document Writer" style="swimlane;fontStyle=1;align=center;verticalAlign=top;childLayout=stackLayout;horizontal=1;startSize=40;horizontalStack=0;resizeParent=1;resizeParentMax=0;resizeLast=0;collapsible=1;marginBottom=0;whiteSpace=wrap;html=1;fillColor=#f8cecc;strokeColor=#b85450;" parent="1" vertex="1">
          <mxGeometry x="190" y="420" width="160" height="74" as="geometry" />
        </mxCell>
        <mxCell id="M_tgrwhZa5VNIvvHF0bR-18" value="1 didacticiel" style="text;strokeColor=none;fillColor=none;align=left;verticalAlign=top;spacingLeft=4;spacingRight=4;overflow=hidden;rotatable=0;points=[[0,0.5],[1,0.5]];portConstraint=eastwest;whiteSpace=wrap;html=1;" parent="M_tgrwhZa5VNIvvHF0bR-17" vertex="1">
          <mxGeometry y="40" width="160" height="26" as="geometry" />
        </mxCell>
        <mxCell id="M_tgrwhZa5VNIvvHF0bR-19" value="" style="line;strokeWidth=1;fillColor=none;align=left;verticalAlign=middle;spacingTop=-1;spacingLeft=3;spacingRight=3;rotatable=0;labelPosition=right;points=[];portConstraint=eastwest;strokeColor=inherit;" parent="M_tgrwhZa5VNIvvHF0bR-17" vertex="1">
          <mxGeometry y="66" width="160" height="8" as="geometry" />
        </mxCell>
        <mxCell id="M_tgrwhZa5VNIvvHF0bR-32" value="Utiliser les modèles de l&#39;Insee" style="swimlane;fontStyle=1;align=center;verticalAlign=top;childLayout=stackLayout;horizontal=1;startSize=40;horizontalStack=0;resizeParent=1;resizeParentMax=0;resizeLast=0;collapsible=1;marginBottom=0;whiteSpace=wrap;html=1;fillColor=#f8cecc;strokeColor=#b85450;" parent="1" vertex="1">
          <mxGeometry y="420" width="160" height="74" as="geometry" />
        </mxCell>
        <mxCell id="M_tgrwhZa5VNIvvHF0bR-33" value="1 didacticiel" style="text;strokeColor=none;fillColor=none;align=left;verticalAlign=top;spacingLeft=4;spacingRight=4;overflow=hidden;rotatable=0;points=[[0,0.5],[1,0.5]];portConstraint=eastwest;whiteSpace=wrap;html=1;" parent="M_tgrwhZa5VNIvvHF0bR-32" vertex="1">
          <mxGeometry y="40" width="160" height="26" as="geometry" />
        </mxCell>
        <mxCell id="M_tgrwhZa5VNIvvHF0bR-34" value="" style="line;strokeWidth=1;fillColor=none;align=left;verticalAlign=middle;spacingTop=-1;spacingLeft=3;spacingRight=3;rotatable=0;labelPosition=right;points=[];portConstraint=eastwest;strokeColor=inherit;" parent="M_tgrwhZa5VNIvvHF0bR-32" vertex="1">
          <mxGeometry y="66" width="160" height="8" as="geometry" />
        </mxCell>
        <mxCell id="M_tgrwhZa5VNIvvHF0bR-35" value="" style="endArrow=block;startArrow=block;endFill=1;startFill=1;html=1;rounded=0;" parent="1" source="oGcL695DofoNEhs4g2Zo-15" target="M_tgrwhZa5VNIvvHF0bR-32" edge="1">
          <mxGeometry width="160" relative="1" as="geometry">
            <mxPoint x="394.5" y="380" as="sourcePoint" />
            <mxPoint x="394.5" y="505" as="targetPoint" />
          </mxGeometry>
        </mxCell>
        <mxCell id="M_tgrwhZa5VNIvvHF0bR-36" value="" style="endArrow=block;startArrow=block;endFill=1;startFill=1;html=1;rounded=0;" parent="1" source="oGcL695DofoNEhs4g2Zo-15" target="M_tgrwhZa5VNIvvHF0bR-17" edge="1">
          <mxGeometry width="160" relative="1" as="geometry">
            <mxPoint x="324" y="340" as="sourcePoint" />
            <mxPoint x="220" y="372" as="targetPoint" />
          </mxGeometry>
        </mxCell>
      </root>
    </mxGraphModel>
  </diagram>
</mxfile>
